<?xml version="1.0" encoding="utf-8"?>
<!-- Generator: Adobe Illustrator 24.2.3, SVG Export Plug-In . SVG Version: 6.00 Build 0)  -->
<svg version="1.1" id="Layer_1" xmlns="http://www.w3.org/2000/svg" xmlns:xlink="http://www.w3.org/1999/xlink" x="0px" y="0px"
	 viewBox="0 0 844 242" style="enable-background:new 0 0 844 242;" xml:space="preserve">
<style type="text/css">
	.st0{clip-path:url(#SVGID_2_);}
	.st1{fill:url(#SVGID_5_);}
	.st2{fill:#3A5CDE;}
	.st3{fill:#BE2BBF;}
	.st4{clip-path:url(#SVGID_7_);fill:url(#SVGID_8_);}
</style>
<g>
	<g>
		<g>
			<defs>
				<path id="SVGID_1_" d="M175.4-0.3h-130c-24.8,0-45,20.3-45,45v130c0,24.8,20.3,45,45,45h130c24.8,0,45-20.3,45-45v-130
					C220.4,20,200.1-0.3,175.4-0.3z M191.4,161.7c0,16-13,29-29,29h-104c-16,0-29-13-29-29v-104c0-16,13-29,29-29h104
					c16,0,29,13,29,29V161.7z M161.4,135.6c0,16.3-13.3,29.6-29.6,29.6c-8.6,0-16.3-3.7-21.7-9.5c-5.4,5.6-13,9.1-21.3,9.1
					c-16.3,0-29.6-13.3-29.6-29.6c0-4.4,3.6-8,8-8s8,3.6,8,8c0,7.5,6.1,13.5,13.5,13.5c7,0,12.8-5.3,13.5-12.1c0-0.3,0-0.7,0-1
					c0-0.8,0.1-1.7,0.4-2.4c0.9-3.4,4-6,7.8-6c4.4,0,8,3.6,8,8c0,0.5,0,1,0,1.5c0.6,6.9,6.4,12.4,13.5,12.4
					c7.5,0,13.5-6.1,13.5-13.5c0-4.4,3.6-8,8-8S161.4,131.2,161.4,135.6z M55.4,78.7c0-9.4,7.6-17,17-17s17,7.6,17,17s-7.6,17-17,17
					S55.4,88.1,55.4,78.7z M165.4,78.7c0,9.4-7.6,17-17,17s-17-7.6-17-17s7.6-17,17-17S165.4,69.4,165.4,78.7z"/>
			</defs>
			<clipPath id="SVGID_2_">
				<use xlink:href="#SVGID_1_"  style="overflow:visible;"/>
			</clipPath>
			<g class="st0">
				<g>
					<defs>
						<rect id="SVGID_3_" x="-4.6" y="-5.3" width="230" height="230"/>
					</defs>
					<clipPath id="SVGID_4_">
						<use xlink:href="#SVGID_3_"  style="overflow:visible;"/>
					</clipPath>
					<g style="clip-path:url(#SVGID_4_);">
						
							<image style="overflow:visible;" width="480" height="480" xlink:href="1B5FEDF8.jpg"  transform="matrix(0.48 0 0 0.48 -4.72 -5.56)">
						</image>
					</g>
				</g>
			</g>
		</g>
	</g>
	
		<radialGradient id="SVGID_5_" cx="-56.3047" cy="-76.451" r="317.0455" fx="-117.6426" fy="-131.2301" gradientUnits="userSpaceOnUse">
		<stop  offset="0" style="stop-color:#3A5CDE"/>
		<stop  offset="1" style="stop-color:#3A5CDE;stop-opacity:0"/>
	</radialGradient>
	<path class="st1" d="M161.4,135.6c0,16.3-13.3,29.6-29.6,29.6c-8.6,0-16.3-3.7-21.7-9.5c-5.4,5.6-13,9.1-21.3,9.1
		c-16.3,0-29.6-13.3-29.6-29.6c0-4.4,3.6-8,8-8s8,3.6,8,8c0,7.5,6.1,13.5,13.5,13.5c7,0,12.8-5.3,13.5-12.1c0-0.3,0-0.7,0-1
		c0-0.8,0.1-1.7,0.4-2.4c0.9-3.4,4-6,7.8-6c4.4,0,8,3.6,8,8c0,0.5,0,1,0,1.5c0.6,6.9,6.4,12.4,13.5,12.4c7.5,0,13.5-6.1,13.5-13.5
		c0-4.4,3.6-8,8-8S161.4,131.2,161.4,135.6z M148.4,61.7c-9.4,0-17,7.6-17,17s7.6,17,17,17s17-7.6,17-17S157.8,61.7,148.4,61.7z
		 M72.4,95.7c9.4,0,17-7.6,17-17s-7.6-17-17-17s-17,7.6-17,17S63,95.7,72.4,95.7z M220.4,44.7v130c0,24.8-20.3,45-45,45h-130
		c-24.8,0-45-20.3-45-45v-130c0-24.8,20.3-45,45-45h130C200.1-0.3,220.4,20,220.4,44.7z M191.4,57.7c0-16-13-29-29-29h-104
		c-16,0-29,13-29,29v104c0,16,13,29,29,29h104c16,0,29-13,29-29V57.7z"/>
	<g>
		<path class="st2" d="M278.4,61.1c-3.8,0-7.2-1.3-10.1-3.9c-2.9-2.6-4.4-6.3-4.4-11.1c0-4.3,1.5-7.8,4.4-10.4
			c2.9-2.6,6.3-3.9,10.1-3.9c3.7,0,6.9,1.4,9.9,4.1c2.9,2.7,4.4,6.1,4.4,10.1c0,4.8-1.5,8.5-4.5,11.1
			C285.1,59.8,281.9,61.1,278.4,61.1z M267.2,190.9v-121h23.2v121H267.2z"/>
		<path class="st2" d="M302.6,119c0-9.1,1-17.1,3-23.7c2-6.7,4.8-12.1,8.5-16.5c3.7-4.3,7.9-7.5,12.9-9.5c4.9-2,10.3-3,16.1-3
			c7.8,0,14.1,1.5,18.7,4.6c4.7,3.1,8.2,6.9,10.6,11.5c2.4,4.6,4,9.7,4.7,15.2c0.7,5.6,1.1,10.9,1.1,15.8v77.4H355v-77.4
			c0-2.7-0.1-5.4-0.4-8.4c-0.3-2.9-0.8-5.6-1.7-8.1c-0.9-2.5-2.2-4.5-3.7-6.1c-1.6-1.6-3.6-2.4-6.1-2.4c-5.8,0-10.1,2.8-12.9,8.5
			c-2.7,5.7-4.1,13.1-4.1,22.2v71.6h-23.2L302.6,119z"/>
		<path class="st2" d="M460.6,154.4c0,5.7-0.8,10.9-2.5,15.8c-1.7,4.9-4,9.2-7,12.7c-3,3.6-6.7,6.4-11.1,8.4c-4.4,2-9.4,3-14.8,3
			c-17,0-29.4-9.9-37.4-29.7l18.5-13.2c6.3,13.8,12.7,20.7,19.2,20.7c3.7,0,6.6-1.6,8.7-4.7c2.2-3.2,3.2-7.3,3.2-12.5
			c0-5.3-1.6-9.7-4.9-13.1c-3.2-3.4-6.8-6.1-10.6-8.1l-4.2-2.2c-2.8-1.7-5.6-3.5-8.4-5.4c-2.7-1.9-5.2-4.1-7.4-6.5
			c-2.2-2.4-3.9-5.2-5.2-8.5c-1.3-3.2-2-7.2-2-11.9c0-4.5,1-8.8,2.9-12.9c1.9-4.1,4.4-7.6,7.5-10.6c3.1-3,6.6-5.4,10.6-7.1
			s8.1-2.6,12.5-2.6c7.5,0,13.8,2.5,19.1,7.4c5.2,4.9,9.7,11.4,13.4,19.6l-17.7,13c-6-11.8-10.9-17.7-14.7-17.7c-2.7,0-5,1-7.1,2.9
			c-2.1,1.9-3.1,4.5-3.1,7.9c0,3.8,1.6,6.8,4.9,9c3.2,2.2,6.9,4.2,10.9,6.2c3.2,1.7,6.4,3.6,9.6,5.9s6.2,5,8.7,8.2
			c2.6,3.2,4.7,7,6.2,11.4C459.8,144,460.6,148.9,460.6,154.4z"/>
		<path class="st2" d="M524.2,185.9c-4.8,2.3-9,4-12.5,4.9c-3.5,0.9-6.4,1.4-8.7,1.4c-5.3,0-9.7-0.8-13-2.4
			c-3.3-1.6-5.9-3.9-7.7-6.9c-1.8-3-3.1-6.5-3.7-10.5c-0.7-4-1-8.4-1-13.2V87h-9.7v-22h9.7V21.9h23.2v43.2h16v22h-16v72.1
			c0,7.5,0.9,11.2,2.7,11.2c0.8,0,2.3-0.5,4.5-1.5c2.2-1,5.4-2.7,9.7-5.2L524.2,185.9z"/>
		<path class="st2" d="M602.5,113c0,0.8,0,1.6,0.1,2.2c0.1,0.7,0.1,1.4,0.1,2.2v4.2c0.2,2.8,0.3,5.7,0.4,8.7c0.1,3,0.1,5.8,0.1,8.5
			c0,7.8-0.5,15.1-1.4,21.7c-0.9,6.7-2.8,12.4-5.7,17.2c-2.9,4.8-7,8.7-12.4,11.5c-5.3,2.8-12.4,4.2-21.2,4.2c-4,0-8.1-0.7-12.2-2.2
			c-4.2-1.5-7.9-3.8-11.2-7c-3.3-3.2-6.1-7.2-8.2-12c-2.2-4.8-3.3-10.6-3.5-17.2v-1.5c0-9,1.7-16.2,5-21.6
			c3.3-5.4,7.4-9.6,12.2-12.6c4.8-3,10.1-5,15.7-6c5.7-1,10.8-1.5,15.5-1.5h3.5c-0.5-7.8-2.1-13.7-4.7-17.6
			c-2.7-3.9-6.2-5.9-10.5-5.9c-2.8,0-6,1.5-9.4,4.5c-3.4,3-6.9,7.1-10.4,12.2l-16.7-15c4.7-7.5,10.4-13.4,17.1-17.6
			s13.1-6.4,19.1-6.4c12,0,21.3,3.7,28.1,11.2S602.2,96.9,602.5,113z M577.6,134.2c-3,0-6,0.3-9.1,0.9c-3.1,0.6-5.9,1.6-8.5,3.1
			c-2.6,1.5-4.7,3.5-6.5,6c-1.7,2.5-2.7,5.7-2.9,9.7v0.7c0.3,5.8,1.8,10.1,4.4,12.7c2.6,2.7,5.1,4,7.6,4c3.8,0,6.9-0.9,9.2-2.6
			c2.3-1.7,4.1-4,5.2-6.7c1.2-2.7,1.9-5.9,2.2-9.4c0.3-3.5,0.5-7,0.5-10.5v-8H577.6z"/>
		<path class="st3" d="M615,130c0-14.5,1.5-25.9,4.6-34.3c3.1-8.4,6.9-14.7,11.4-19c4.5-4.2,9.2-6.9,14.1-8.1
			c4.9-1.2,9.1-1.7,12.6-1.7c7,0,13.1,1.6,18.5,4.7c5.3,3.2,9.8,7.6,13.4,13.2c3.6,5.7,6.3,12.4,8.1,20.2c1.8,7.8,2.7,16.3,2.7,25.5
			c0,9.5-1,18.1-2.9,26c-1.9,7.8-4.7,14.6-8.4,20.2c-3.7,5.7-8.2,10.1-13.5,13.4c-5.3,3.2-11.3,4.9-18,4.9c-7.7,0-14.2-2-19.7-6
			v53.4h-23.2L615,130z M637.7,130.5c0,6,0.4,11.5,1.2,16.6c0.8,5.1,2.1,9.5,3.7,13.4c1.7,3.8,3.7,6.8,6.2,9
			c2.5,2.2,5.4,3.2,8.7,3.2c3.3,0,6.2-1.1,8.6-3.2c2.4-2.2,4.4-5.2,6.1-9c1.7-3.8,2.9-8.3,3.6-13.5c0.7-5.2,1.1-10.6,1.1-16.5
			c0-5.8-0.4-11.3-1.1-16.3c-0.7-5.1-2-9.5-3.6-13.2c-1.7-3.7-3.7-6.7-6.1-8.9c-2.4-2.2-5.3-3.2-8.6-3.2c-6.7,0-11.6,3.3-15,9.9
			C639.4,105.2,637.7,115.8,637.7,130.5z"/>
		<path class="st3" d="M708.3,146.9c0-0.8,0-1.5-0.1-2.1c-0.1-0.6-0.1-1.3-0.1-2.1v-4.5c-0.2-3-0.3-5.9-0.4-8.7
			c-0.1-2.8-0.1-5.7-0.1-8.5c0-7.7,0.5-14.8,1.4-21.6c0.9-6.7,2.8-12.5,5.7-17.3c2.9-4.8,7-8.6,12.4-11.5c5.3-2.8,12.4-4.2,21.2-4.2
			c4,0,8.1,0.7,12.2,2.2c4.2,1.5,7.9,3.8,11.2,7c3.3,3.2,6.1,7.2,8.2,12c2.2,4.8,3.3,10.6,3.5,17.2v1.5c0,9-1.7,16.2-5,21.6
			c-3.3,5.4-7.4,9.6-12.2,12.6c-4.8,3-10.1,5-15.7,6c-5.7,1-10.8,1.5-15.5,1.5h-3.5c1,15.6,6.1,23.5,15.2,23.5
			c2.8,0,5.9-1.5,9.2-4.5c3.3-3,6.8-7.2,10.5-12.5l16.7,15.2c-4.7,7.5-10.4,13.4-17.1,17.6c-6.7,4.2-13.1,6.4-19.1,6.4
			c-12,0-21.3-3.7-28.1-11.2C712.2,174.9,708.7,163.1,708.3,146.9z M733.3,125.7c3,0,6-0.3,9.1-0.9c3.1-0.6,5.9-1.6,8.5-3.1
			c2.6-1.5,4.7-3.5,6.5-6c1.7-2.5,2.7-5.7,2.9-9.7v-0.7c-0.3-5.8-1.8-10.1-4.5-12.7c-2.7-2.7-5.2-4-7.7-4c-3.8,0-6.9,0.9-9.1,2.6
			c-2.2,1.7-4,4-5.1,6.7c-1.2,2.7-1.9,5.9-2.2,9.4c-0.3,3.5-0.5,7-0.5,10.5v8H733.3z"/>
		<path class="st3" d="M844.3,185.9c-4.8,2.3-9,4-12.5,4.9c-3.5,0.9-6.4,1.4-8.7,1.4c-5.3,0-9.7-0.8-13-2.4
			c-3.3-1.6-5.9-3.9-7.7-6.9c-1.8-3-3.1-6.5-3.7-10.5c-0.7-4-1-8.4-1-13.2V87h-9.7v-22h9.7V21.9h23.2v43.2h16v22h-16v72.1
			c0,7.5,0.9,11.2,2.7,11.2c0.8,0,2.3-0.5,4.5-1.5c2.2-1,5.4-2.7,9.7-5.2L844.3,185.9z"/>
	</g>
	<g>
		<defs>
			<path id="SVGID_6_" d="M278.4,61.1c-3.8,0-7.2-1.3-10.1-3.9c-2.9-2.6-4.4-6.3-4.4-11.1c0-4.3,1.5-7.8,4.4-10.4
				c2.9-2.6,6.3-3.9,10.1-3.9c3.7,0,6.9,1.4,9.9,4.1c2.9,2.7,4.4,6.1,4.4,10.1c0,4.8-1.5,8.5-4.5,11.1
				C285.1,59.8,281.9,61.1,278.4,61.1z M267.2,190.9v-121h23.2v121H267.2z M302.6,119c0-9.1,1-17.1,3-23.7c2-6.7,4.8-12.1,8.5-16.5
				c3.7-4.3,7.9-7.5,12.9-9.5c4.9-2,10.3-3,16.1-3c7.8,0,14.1,1.5,18.7,4.6c4.7,3.1,8.2,6.9,10.6,11.5c2.4,4.6,4,9.7,4.7,15.2
				c0.7,5.6,1.1,10.9,1.1,15.8v77.4H355v-77.4c0-2.7-0.1-5.4-0.4-8.4c-0.3-2.9-0.8-5.6-1.7-8.1c-0.9-2.5-2.2-4.5-3.7-6.1
				c-1.6-1.6-3.6-2.4-6.1-2.4c-5.8,0-10.1,2.8-12.9,8.5c-2.7,5.7-4.1,13.1-4.1,22.2v71.6h-23.2L302.6,119z M460.6,154.4
				c0,5.7-0.8,10.9-2.5,15.8c-1.7,4.9-4,9.2-7,12.7c-3,3.6-6.7,6.4-11.1,8.4c-4.4,2-9.4,3-14.8,3c-17,0-29.4-9.9-37.4-29.7
				l18.5-13.2c6.3,13.8,12.7,20.7,19.2,20.7c3.7,0,6.6-1.6,8.7-4.7c2.2-3.2,3.2-7.3,3.2-12.5c0-5.3-1.6-9.7-4.9-13.1
				c-3.2-3.4-6.8-6.1-10.6-8.1l-4.2-2.2c-2.8-1.7-5.6-3.5-8.4-5.4c-2.7-1.9-5.2-4.1-7.4-6.5c-2.2-2.4-3.9-5.2-5.2-8.5
				c-1.3-3.2-2-7.2-2-11.9c0-4.5,1-8.8,2.9-12.9c1.9-4.1,4.4-7.6,7.5-10.6c3.1-3,6.6-5.4,10.6-7.1s8.1-2.6,12.5-2.6
				c7.5,0,13.8,2.5,19.1,7.4c5.2,4.9,9.7,11.4,13.4,19.6l-17.7,13c-6-11.8-10.9-17.7-14.7-17.7c-2.7,0-5,1-7.1,2.9
				c-2.1,1.9-3.1,4.5-3.1,7.9c0,3.8,1.6,6.8,4.9,9c3.2,2.2,6.9,4.2,10.9,6.2c3.2,1.7,6.4,3.6,9.6,5.9s6.2,5,8.7,8.2
				c2.6,3.2,4.7,7,6.2,11.4C459.8,144,460.6,148.9,460.6,154.4z M524.2,185.9c-4.8,2.3-9,4-12.5,4.9c-3.5,0.9-6.4,1.4-8.7,1.4
				c-5.3,0-9.7-0.8-13-2.4c-3.3-1.6-5.9-3.9-7.7-6.9c-1.8-3-3.1-6.5-3.7-10.5c-0.7-4-1-8.4-1-13.2V87h-9.7v-22h9.7V21.9h23.2v43.2
				h16v22h-16v72.1c0,7.5,0.9,11.2,2.7,11.2c0.8,0,2.3-0.5,4.5-1.5c2.2-1,5.4-2.7,9.7-5.2L524.2,185.9z M602.5,113
				c0,0.8,0,1.6,0.1,2.2c0.1,0.7,0.1,1.4,0.1,2.2v4.2c0.2,2.8,0.3,5.7,0.4,8.7c0.1,3,0.1,5.8,0.1,8.5c0,7.8-0.5,15.1-1.4,21.7
				c-0.9,6.7-2.8,12.4-5.7,17.2c-2.9,4.8-7,8.7-12.4,11.5c-5.3,2.8-12.4,4.2-21.2,4.2c-4,0-8.1-0.7-12.2-2.2
				c-4.2-1.5-7.9-3.8-11.2-7c-3.3-3.2-6.1-7.2-8.2-12c-2.2-4.8-3.3-10.6-3.5-17.2v-1.5c0-9,1.7-16.2,5-21.6
				c3.3-5.4,7.4-9.6,12.2-12.6c4.8-3,10.1-5,15.7-6c5.7-1,10.8-1.5,15.5-1.5h3.5c-0.5-7.8-2.1-13.7-4.7-17.6
				c-2.7-3.9-6.2-5.9-10.5-5.9c-2.8,0-6,1.5-9.4,4.5c-3.4,3-6.9,7.1-10.4,12.2l-16.7-15c4.7-7.5,10.4-13.4,17.1-17.6
				s13.1-6.4,19.1-6.4c12,0,21.3,3.7,28.1,11.2S602.2,96.9,602.5,113z M577.6,134.2c-3,0-6,0.3-9.1,0.9c-3.1,0.6-5.9,1.6-8.5,3.1
				c-2.6,1.5-4.7,3.5-6.5,6c-1.7,2.5-2.7,5.7-2.9,9.7v0.7c0.3,5.8,1.8,10.1,4.4,12.7c2.6,2.7,5.1,4,7.6,4c3.8,0,6.9-0.9,9.2-2.6
				c2.3-1.7,4.1-4,5.2-6.7c1.2-2.7,1.9-5.9,2.2-9.4c0.3-3.5,0.5-7,0.5-10.5v-8H577.6z M615,130c0-14.5,1.5-25.9,4.6-34.3
				c3.1-8.4,6.9-14.7,11.4-19c4.5-4.2,9.2-6.9,14.1-8.1c4.9-1.2,9.1-1.7,12.6-1.7c7,0,13.1,1.6,18.5,4.7c5.3,3.2,9.8,7.6,13.4,13.2
				c3.6,5.7,6.3,12.4,8.1,20.2c1.8,7.8,2.7,16.3,2.7,25.5c0,9.5-1,18.1-2.9,26c-1.9,7.8-4.7,14.6-8.4,20.2
				c-3.7,5.7-8.2,10.1-13.5,13.4c-5.3,3.2-11.3,4.9-18,4.9c-7.7,0-14.2-2-19.7-6v53.4h-23.2L615,130z M637.7,130.5
				c0,6,0.4,11.5,1.2,16.6c0.8,5.1,2.1,9.5,3.7,13.4c1.7,3.8,3.7,6.8,6.2,9c2.5,2.2,5.4,3.2,8.7,3.2c3.3,0,6.2-1.1,8.6-3.2
				c2.4-2.2,4.4-5.2,6.1-9c1.7-3.8,2.9-8.3,3.6-13.5c0.7-5.2,1.1-10.6,1.1-16.5c0-5.8-0.4-11.3-1.1-16.3c-0.7-5.1-2-9.5-3.6-13.2
				c-1.7-3.7-3.7-6.7-6.1-8.9c-2.4-2.2-5.3-3.2-8.6-3.2c-6.7,0-11.6,3.3-15,9.9C639.4,105.2,637.7,115.8,637.7,130.5z M708.3,146.9
				c0-0.8,0-1.5-0.1-2.1c-0.1-0.6-0.1-1.3-0.1-2.1v-4.5c-0.2-3-0.3-5.9-0.4-8.7c-0.1-2.8-0.1-5.7-0.1-8.5c0-7.7,0.5-14.8,1.4-21.6
				c0.9-6.7,2.8-12.5,5.7-17.3c2.9-4.8,7-8.6,12.4-11.5c5.3-2.8,12.4-4.2,21.2-4.2c4,0,8.1,0.7,12.2,2.2c4.2,1.5,7.9,3.8,11.2,7
				c3.3,3.2,6.1,7.2,8.2,12c2.2,4.8,3.3,10.6,3.5,17.2v1.5c0,9-1.7,16.2-5,21.6c-3.3,5.4-7.4,9.6-12.2,12.6c-4.8,3-10.1,5-15.7,6
				c-5.7,1-10.8,1.5-15.5,1.5h-3.5c1,15.6,6.1,23.5,15.2,23.5c2.8,0,5.9-1.5,9.2-4.5c3.3-3,6.8-7.2,10.5-12.5l16.7,15.2
				c-4.7,7.5-10.4,13.4-17.1,17.6c-6.7,4.2-13.1,6.4-19.1,6.4c-12,0-21.3-3.7-28.1-11.2C712.2,174.9,708.7,163.1,708.3,146.9z
				 M733.3,125.7c3,0,6-0.3,9.1-0.9c3.1-0.6,5.9-1.6,8.5-3.1c2.6-1.5,4.7-3.5,6.5-6c1.7-2.5,2.7-5.7,2.9-9.7v-0.7
				c-0.3-5.8-1.8-10.1-4.5-12.7c-2.7-2.7-5.2-4-7.7-4c-3.8,0-6.9,0.9-9.1,2.6c-2.2,1.7-4,4-5.1,6.7c-1.2,2.7-1.9,5.9-2.2,9.4
				c-0.3,3.5-0.5,7-0.5,10.5v8H733.3z M844.3,185.9c-4.8,2.3-9,4-12.5,4.9c-3.5,0.9-6.4,1.4-8.7,1.4c-5.3,0-9.7-0.8-13-2.4
				c-3.3-1.6-5.9-3.9-7.7-6.9c-1.8-3-3.1-6.5-3.7-10.5c-0.7-4-1-8.4-1-13.2V87h-9.7v-22h9.7V21.9h23.2v43.2h16v22h-16v72.1
				c0,7.5,0.9,11.2,2.7,11.2c0.8,0,2.3-0.5,4.5-1.5c2.2-1,5.4-2.7,9.7-5.2L844.3,185.9z"/>
		</defs>
		<clipPath id="SVGID_7_">
			<use xlink:href="#SVGID_6_"  style="overflow:visible;"/>
		</clipPath>
		<linearGradient id="SVGID_8_" gradientUnits="userSpaceOnUse" x1="260.3766" y1="129.2467" x2="844.3766" y2="129.2467">
			<stop  offset="0" style="stop-color:#3A5CDE"/>
			<stop  offset="1" style="stop-color:#BE2BBF"/>
		</linearGradient>
		<rect x="260.4" y="7.7" class="st4" width="584" height="243"/>
	</g>
</g>
</svg>
